<svg width="152" height="19" viewBox="0 0 152 19" fill="none" xmlns="http://www.w3.org/2000/svg">
<path d="M19.58 15.69C19.5947 15.9833 19.6313 16.2693 19.69 16.548C19.7633 16.8267 19.8513 17.032 19.954 17.164C19.822 17.296 19.6167 17.45 19.338 17.626C19.074 17.802 18.766 17.9413 18.414 18.044C18.0767 18.1613 17.7173 18.2127 17.336 18.198C16.764 18.1687 16.302 17.9267 15.95 17.472C15.6127 17.0173 15.4367 16.4527 15.422 15.778C15.422 15.646 15.422 15.404 15.422 15.052C15.422 14.6853 15.422 14.2967 15.422 13.886C15.422 13.4753 15.422 13.138 15.422 12.874C15.422 12.6247 15.356 12.3827 15.224 12.148C15.1067 11.9133 14.9673 11.774 14.806 11.73C14.586 11.6567 14.4027 11.7887 14.256 12.126C14.2267 12.1993 14.1313 12.3827 13.97 12.676C13.8087 12.9547 13.6253 13.2847 13.42 13.666C13.2293 14.0473 13.046 14.4287 12.87 14.81C12.7087 15.1913 12.5987 15.5213 12.54 15.8C12.4813 16.064 12.518 16.2253 12.65 16.284C12.5913 16.4307 12.4813 16.6433 12.32 16.922C12.1733 17.2007 11.924 17.4427 11.572 17.648C11.2347 17.8387 10.7507 17.912 10.12 17.868C9.78267 17.8387 9.35 17.6333 8.822 17.252C8.294 16.8707 7.788 16.174 7.304 15.162C6.84933 14.194 6.47533 13.5413 6.182 13.204C5.90333 12.852 5.698 12.6907 5.566 12.72C5.44867 12.7347 5.35333 12.8153 5.28 12.962C5.22133 13.1087 5.16267 13.314 5.104 13.578C5.07467 13.71 5.06 13.93 5.06 14.238C5.06 14.546 5.07467 14.8907 5.104 15.272C5.13333 15.6533 5.18467 16.0127 5.258 16.35C5.346 16.6873 5.456 16.944 5.588 17.12C5.47067 17.1933 5.258 17.318 4.95 17.494C4.65667 17.67 4.31933 17.8313 3.938 17.978C3.57133 18.11 3.212 18.176 2.86 18.176C2.332 18.1613 1.892 18.022 1.54 17.758C1.188 17.4793 0.975333 16.9367 0.902 16.13C0.887333 15.998 0.88 15.624 0.88 15.008C0.88 14.392 0.88 13.6147 0.88 12.676C0.88 11.7373 0.88 10.7327 0.88 9.662C0.88 8.57667 0.88 7.506 0.88 6.45C0.88 5.394 0.88 4.426 0.88 3.546C0.894667 2.666 0.902 1.962 0.902 1.434C0.902 0.905999 0.902 0.641999 0.902 0.641999C1.06333 0.612666 1.33467 0.605333 1.716 0.62C2.09733 0.634666 2.51533 0.693332 2.97 0.795999C3.42467 0.898666 3.84267 1.06733 4.224 1.302C4.60533 1.522 4.86933 1.83733 5.016 2.248C5.016 2.248 5.082 2.38733 5.214 2.666C5.36067 2.93 5.55133 3.282 5.786 3.722C6.02067 4.14733 6.27 4.60933 6.534 5.108C6.81267 5.60667 7.07667 6.098 7.326 6.582C7.59 7.066 7.81733 7.49133 8.008 7.858C8.21333 8.22467 8.35267 8.48133 8.426 8.628C8.67533 9.05333 8.91 9.34667 9.13 9.508C9.36467 9.66933 9.614 9.75733 9.878 9.772C10.4207 9.772 10.9413 9.354 11.44 8.518C11.5133 8.386 11.66 8.10733 11.88 7.682C12.1 7.242 12.3567 6.72133 12.65 6.12C12.9433 5.51867 13.244 4.90267 13.552 4.272C13.8747 3.64133 14.168 3.05467 14.432 2.512C14.696 1.95467 14.9087 1.50733 15.07 1.17C15.246 0.817999 15.334 0.641999 15.334 0.641999C15.4367 0.627333 15.5833 0.62 15.774 0.62C15.9793 0.605333 16.1993 0.612666 16.434 0.641999C16.8447 0.671332 17.2773 0.751999 17.732 0.883999C18.2013 1.016 18.6047 1.22133 18.942 1.5C19.294 1.77867 19.492 2.15267 19.536 2.622C19.5653 2.87133 19.5873 3.282 19.602 3.854C19.6167 4.41133 19.624 5.07867 19.624 5.856C19.624 6.61867 19.624 7.43267 19.624 8.298C19.624 9.16333 19.6167 10.014 19.602 10.85C19.602 11.686 19.5947 12.456 19.58 13.16C19.58 13.864 19.58 14.4433 19.58 14.898C19.58 15.338 19.58 15.602 19.58 15.69ZM33.8638 14.018C33.8785 14.3407 33.9005 14.7367 33.9298 15.206C33.9738 15.6753 34.0692 16.13 34.2158 16.57C34.3625 17.01 34.5972 17.362 34.9198 17.626C34.5532 17.8753 34.1792 18.0513 33.7978 18.154C33.4165 18.2713 33.0425 18.3007 32.6758 18.242C32.5732 18.2127 32.4632 18.176 32.3458 18.132C32.2285 18.1027 32.0672 18.0587 31.8618 18C31.5245 17.8973 31.1285 17.8753 30.6738 17.934C30.2192 17.9927 29.7425 18.066 29.2438 18.154C28.7598 18.2567 28.2832 18.308 27.8138 18.308C27.0512 18.308 26.2885 18.176 25.5258 17.912C24.7632 17.6333 24.0738 17.208 23.4578 16.636C22.8418 16.064 22.3725 15.338 22.0498 14.458C21.7272 13.578 21.6318 12.522 21.7638 11.29C21.8518 10.4393 22.0938 9.662 22.4898 8.958C22.8858 8.23933 23.3698 7.62333 23.9418 7.11C24.5285 6.582 25.1445 6.17867 25.7898 5.9C26.4498 5.60667 27.0878 5.46733 27.7038 5.482C28.1732 5.49667 28.5325 5.51133 28.7818 5.526C29.0458 5.54067 29.3832 5.57733 29.7938 5.636C30.0432 5.66533 30.3585 5.62867 30.7398 5.526C31.1212 5.42333 31.5025 5.31333 31.8838 5.196C32.2798 5.064 32.6172 4.998 32.8958 4.998C33.3212 4.98333 33.6218 4.998 33.7978 5.042C33.9738 5.07133 34.1205 5.10067 34.2378 5.13C34.1498 5.394 34.0765 5.79 34.0178 6.318C33.9592 6.846 33.9152 7.44733 33.8858 8.122C33.8712 8.782 33.8565 9.47133 33.8418 10.19C33.8272 10.9087 33.8198 11.598 33.8198 12.258C33.8345 12.918 33.8492 13.5047 33.8638 14.018ZM25.5918 11.994C25.6212 12.7273 25.7532 13.2993 25.9878 13.71C26.2372 14.106 26.5305 14.3847 26.8678 14.546C27.2198 14.7073 27.5572 14.788 27.8798 14.788C28.5252 14.8027 29.0018 14.5533 29.3098 14.04C29.6178 13.5267 29.7645 12.8153 29.7498 11.906C29.7498 11.6567 29.7205 11.3633 29.6618 11.026C29.6178 10.6887 29.5298 10.3587 29.3978 10.036C29.2805 9.71333 29.1118 9.442 28.8918 9.222C28.6865 9.002 28.4152 8.892 28.0778 8.892C27.4032 8.892 26.8092 9.14133 26.2958 9.64C25.7972 10.1387 25.5625 10.9233 25.5918 11.994ZM43.735 5.262C44.0283 5.18867 44.2996 5.262 44.549 5.482C44.7983 5.702 45.0183 6.00267 45.209 6.384C45.4143 6.75067 45.583 7.132 45.715 7.528C45.847 7.90933 45.9496 8.232 46.023 8.496C46.0963 8.76 46.133 8.892 46.133 8.892C46.133 8.892 45.957 8.92867 45.605 9.002C45.2676 9.06067 44.8423 9.18533 44.329 9.376C43.8303 9.552 43.3316 9.82333 42.833 10.19C42.5396 10.41 42.261 10.674 41.997 10.982C41.733 11.29 41.5056 11.686 41.315 12.17C41.1243 12.6393 40.985 13.2627 40.897 14.04C40.853 14.436 40.8456 14.8467 40.875 15.272C40.9043 15.6973 40.919 16.0567 40.919 16.35C40.9336 16.614 40.9703 16.8047 41.029 16.922C41.1023 17.0247 41.161 17.1127 41.205 17.186C41.0143 17.362 40.6623 17.56 40.149 17.78C39.6503 17.9853 39.1003 18.088 38.499 18.088C37.9123 18.088 37.4796 17.8973 37.201 17.516C36.9223 17.1347 36.783 16.6067 36.783 15.932C36.783 15.7707 36.7756 15.4187 36.761 14.876C36.761 14.3187 36.7536 13.6513 36.739 12.874C36.739 12.0967 36.7316 11.29 36.717 10.454C36.717 9.618 36.7096 8.84067 36.695 8.122C36.695 7.38867 36.6876 6.79467 36.673 6.34C36.673 5.88533 36.673 5.658 36.673 5.658C36.8196 5.62867 37.069 5.60667 37.421 5.592C37.7876 5.57733 38.1836 5.592 38.609 5.636C39.0343 5.68 39.4303 5.78267 39.797 5.944C39.973 6.01733 40.2076 6.09067 40.501 6.164C40.809 6.22267 41.1023 6.252 41.381 6.252C41.6743 6.252 41.887 6.208 42.019 6.12C42.2976 5.91467 42.5763 5.73867 42.855 5.592C43.1483 5.44533 43.4416 5.33533 43.735 5.262ZM58.2058 8.496C58.1471 8.804 58.0151 9.09 57.8098 9.354C57.6045 9.618 57.3625 9.838 57.0838 10.014C56.8198 10.1753 56.5631 10.2633 56.3138 10.278C56.0645 10.2927 55.8591 10.2047 55.6978 10.014C55.9765 9.82333 56.0425 9.64 55.8958 9.464C55.7638 9.288 55.5365 9.14867 55.2138 9.046C54.8911 8.94333 54.5758 8.914 54.2678 8.958C53.5051 9.07533 52.9405 9.40533 52.5738 9.948C52.2071 10.476 51.9725 11.0847 51.8698 11.774C51.7965 12.3607 51.8551 12.8887 52.0458 13.358C52.2511 13.8127 52.5298 14.1793 52.8818 14.458C53.2485 14.722 53.6445 14.8613 54.0698 14.876C55.0231 14.8907 55.8151 14.7513 56.4458 14.458C57.0765 14.1647 57.5678 13.8273 57.9198 13.446C58.2865 13.05 58.5358 12.7273 58.6678 12.478C59.0198 12.7273 59.2251 13.0867 59.2838 13.556C59.3425 14.0253 59.2691 14.5313 59.0638 15.074C58.8585 15.6167 58.5358 16.1373 58.0958 16.636C57.6558 17.1347 57.1205 17.5453 56.4898 17.868C55.8591 18.176 55.1405 18.33 54.3338 18.33C53.9085 18.33 53.4025 18.2787 52.8158 18.176C52.2291 18.0733 51.6278 17.8827 51.0118 17.604C50.4105 17.3253 49.8531 16.922 49.3398 16.394C48.8411 15.866 48.4525 15.184 48.1738 14.348C47.9098 13.512 47.8291 12.4853 47.9318 11.268C48.0051 10.3293 48.2545 9.50067 48.6798 8.782C49.1198 8.04867 49.6551 7.43267 50.2858 6.934C50.9165 6.42067 51.5765 6.032 52.2658 5.768C52.9698 5.48933 53.6371 5.34267 54.2678 5.328C54.8985 5.31333 55.4705 5.40867 55.9838 5.614C56.4971 5.81933 56.9298 6.09067 57.2818 6.428C57.6338 6.75067 57.8905 7.09533 58.0518 7.462C58.2131 7.82867 58.2645 8.17333 58.2058 8.496ZM72.772 14.018C72.7867 14.3407 72.8087 14.7367 72.838 15.206C72.882 15.6753 72.9774 16.13 73.124 16.57C73.2707 17.01 73.5054 17.362 73.828 17.626C73.4614 17.8753 73.0874 18.0513 72.706 18.154C72.3247 18.2713 71.9507 18.3007 71.584 18.242C71.4814 18.2127 71.3714 18.176 71.254 18.132C71.1367 18.1027 70.9754 18.0587 70.77 18C70.4327 17.8973 70.0367 17.8753 69.582 17.934C69.1274 17.9927 68.6507 18.066 68.152 18.154C67.668 18.2567 67.1914 18.308 66.722 18.308C65.9594 18.308 65.1967 18.176 64.434 17.912C63.6714 17.6333 62.982 17.208 62.366 16.636C61.75 16.064 61.2807 15.338 60.958 14.458C60.6354 13.578 60.54 12.522 60.672 11.29C60.76 10.4393 61.002 9.662 61.398 8.958C61.794 8.23933 62.278 7.62333 62.85 7.11C63.4367 6.582 64.0527 6.17867 64.698 5.9C65.358 5.60667 65.996 5.46733 66.612 5.482C67.0814 5.49667 67.4407 5.51133 67.69 5.526C67.954 5.54067 68.2914 5.57733 68.702 5.636C68.9514 5.66533 69.2667 5.62867 69.648 5.526C70.0294 5.42333 70.4107 5.31333 70.792 5.196C71.188 5.064 71.5254 4.998 71.804 4.998C72.2294 4.98333 72.53 4.998 72.706 5.042C72.882 5.07133 73.0287 5.10067 73.146 5.13C73.058 5.394 72.9847 5.79 72.926 6.318C72.8674 6.846 72.8234 7.44733 72.794 8.122C72.7794 8.782 72.7647 9.47133 72.75 10.19C72.7354 10.9087 72.728 11.598 72.728 12.258C72.7427 12.918 72.7574 13.5047 72.772 14.018ZM64.5 11.994C64.5294 12.7273 64.6614 13.2993 64.896 13.71C65.1454 14.106 65.4387 14.3847 65.776 14.546C66.128 14.7073 66.4654 14.788 66.788 14.788C67.4334 14.8027 67.91 14.5533 68.218 14.04C68.526 13.5267 68.6727 12.8153 68.658 11.906C68.658 11.6567 68.6287 11.3633 68.57 11.026C68.526 10.6887 68.438 10.3587 68.306 10.036C68.1887 9.71333 68.02 9.442 67.8 9.222C67.5947 9.002 67.3234 8.892 66.986 8.892C66.3114 8.892 65.7174 9.14133 65.204 9.64C64.7054 10.1387 64.4707 10.9233 64.5 11.994ZM81.3232 5.218C82.4085 5.218 83.3325 5.372 84.0952 5.68C84.8725 5.988 85.4665 6.36933 85.8772 6.824C86.2878 7.27867 86.4858 7.726 86.4712 8.166C86.4712 8.40067 86.3685 8.66467 86.1632 8.958C85.9578 9.25133 85.6865 9.50067 85.3492 9.706C85.0265 9.89667 84.6672 9.97 84.2712 9.926C84.3738 9.662 84.3078 9.41267 84.0732 9.178C83.8385 8.94333 83.5012 8.75267 83.0612 8.606C82.6212 8.44467 82.1445 8.35667 81.6312 8.342C81.0445 8.31267 80.6485 8.37867 80.4432 8.54C80.2378 8.68667 80.1205 8.848 80.0912 9.024C80.0472 9.21467 80.1352 9.38333 80.3552 9.53C80.5752 9.662 80.8612 9.78667 81.2132 9.904C81.5798 10.0067 81.9612 10.102 82.3572 10.19C82.7678 10.2633 83.1418 10.3293 83.4792 10.388C83.8312 10.4467 84.1025 10.5053 84.2932 10.564C85.1732 10.828 85.8185 11.1727 86.2292 11.598C86.6398 12.0087 86.9038 12.4487 87.0212 12.918C87.1532 13.3873 87.2045 13.8493 87.1752 14.304C87.1458 15.0373 86.9552 15.6533 86.6032 16.152C86.2658 16.636 85.8405 17.0247 85.3272 17.318C84.8285 17.6113 84.3005 17.8313 83.7432 17.978C83.2005 18.11 82.6872 18.198 82.2032 18.242C81.7338 18.286 81.3745 18.308 81.1252 18.308C80.3625 18.2933 79.6438 18.2127 78.9692 18.066C78.3092 17.934 77.7372 17.758 77.2532 17.538C76.7838 17.318 76.4465 17.0833 76.2412 16.834C76.0945 16.658 75.9552 16.4087 75.8232 16.086C75.6912 15.7633 75.6105 15.4187 75.5812 15.052C75.5665 14.6707 75.6472 14.3113 75.8232 13.974C75.9992 13.622 76.3218 13.336 76.7912 13.116C76.8792 13.4093 77.1138 13.6733 77.4952 13.908C77.8912 14.1427 78.3605 14.3333 78.9032 14.48C79.4605 14.6267 80.0105 14.7293 80.5532 14.788C81.0812 14.832 81.5798 14.8247 82.0492 14.766C82.5185 14.7073 82.7752 14.5387 82.8192 14.26C82.8485 14.1133 82.7752 13.9667 82.5992 13.82C82.4232 13.6733 82.1005 13.5487 81.6312 13.446C81.1325 13.3287 80.6925 13.2407 80.3112 13.182C79.9445 13.1087 79.5778 13.028 79.2112 12.94C78.5218 12.764 77.9205 12.4853 77.4072 12.104C76.8938 11.7227 76.5052 11.268 76.2412 10.74C75.9918 10.1973 75.9038 9.62533 75.9772 9.024C76.0945 8.15867 76.4098 7.44733 76.9232 6.89C77.4512 6.33267 78.1038 5.91467 78.8812 5.636C79.6585 5.35733 80.4725 5.218 81.3232 5.218ZM90.3525 8.804C90.4845 8.804 90.7851 8.81133 91.2545 8.826C91.7385 8.826 92.3178 8.826 92.9925 8.826C93.6671 8.826 94.3638 8.826 95.0825 8.826C95.8158 8.826 96.4978 8.826 97.1285 8.826C97.7738 8.81133 98.2945 8.804 98.6905 8.804C99.0865 8.804 99.2845 8.804 99.2845 8.804C99.2845 8.804 99.2845 8.92133 99.2845 9.156C99.2845 9.39067 99.2698 9.684 99.2405 10.036C99.2111 10.388 99.1598 10.7473 99.0865 11.114C99.0131 11.466 98.8958 11.774 98.7345 12.038C98.5878 12.302 98.3898 12.456 98.1405 12.5C97.9058 12.5293 97.5171 12.5587 96.9745 12.588C96.4465 12.6027 95.8525 12.6173 95.1925 12.632C94.5325 12.632 93.8798 12.6247 93.2345 12.61C92.6038 12.5953 92.0611 12.5733 91.6065 12.544C91.1518 12.5147 90.8805 12.478 90.7925 12.434C90.6605 12.3753 90.5358 12.214 90.4185 11.95C90.3158 11.686 90.2205 11.378 90.1325 11.026C90.0591 10.6593 90.0151 10.3073 90.0005 9.97C89.9858 9.63267 90.0005 9.354 90.0445 9.134C90.1031 8.89933 90.2058 8.78933 90.3525 8.804ZM113.533 0.487999C113.709 0.634666 113.87 0.913333 114.017 1.324C114.164 1.72 114.237 2.138 114.237 2.578C114.222 2.98867 114.112 3.37733 113.907 3.744C113.716 4.11067 113.364 4.36 112.851 4.492C112.704 4.536 112.477 4.57267 112.169 4.602C111.861 4.61667 111.538 4.63133 111.201 4.646C110.878 4.646 110.6 4.65333 110.365 4.668C110.145 4.668 110.035 4.668 110.035 4.668C109.17 4.668 108.436 4.78533 107.835 5.02C107.234 5.25467 106.911 5.62133 106.867 6.12C106.823 6.604 106.874 6.934 107.021 7.11C107.182 7.286 107.388 7.43267 107.637 7.55C107.813 7.62333 108.114 7.66 108.539 7.66C108.979 7.64533 109.448 7.60133 109.947 7.528C110.446 7.45467 110.893 7.36667 111.289 7.264C111.7 7.16133 111.971 7.05867 112.103 6.956C112.294 7.11733 112.426 7.42533 112.499 7.88C112.572 8.32 112.565 8.77467 112.477 9.244C112.404 9.62533 112.257 9.97733 112.037 10.3C111.817 10.608 111.516 10.8207 111.135 10.938C110.827 11.026 110.585 11.0773 110.409 11.092C110.248 11.1067 110.116 11.1213 110.013 11.136C108.898 11.1653 108.077 11.4733 107.549 12.06C107.036 12.632 106.794 13.3727 106.823 14.282C106.838 14.6487 106.918 15.0007 107.065 15.338C107.226 15.6607 107.395 15.888 107.571 16.02C107.556 16.1667 107.52 16.328 107.461 16.504C107.402 16.6653 107.3 16.856 107.153 17.076C106.962 17.3547 106.706 17.6113 106.383 17.846C106.06 18.0807 105.642 18.2053 105.129 18.22C104.601 18.22 104.154 18.1027 103.787 17.868C103.42 17.6187 103.142 17.2007 102.951 16.614C102.775 16.0273 102.687 15.2207 102.687 14.194C102.687 14.1647 102.687 13.93 102.687 13.49C102.687 13.05 102.68 12.5 102.665 11.84C102.665 11.18 102.658 10.4907 102.643 9.772C102.643 9.05333 102.636 8.39333 102.621 7.792C102.621 7.176 102.621 6.70667 102.621 6.384C102.621 5.9 102.599 5.37933 102.555 4.822C102.511 4.26467 102.46 3.73667 102.401 3.238C102.342 2.72467 102.291 2.314 102.247 2.006C102.188 1.75667 102.144 1.51467 102.115 1.28C102.1 1.03067 102.093 0.810666 102.093 0.62C102.196 0.663999 102.474 0.707999 102.929 0.751999C103.398 0.781332 103.941 0.810665 104.557 0.839999C104.616 0.839999 104.784 0.847333 105.063 0.861999C105.356 0.876666 105.694 0.891332 106.075 0.906C106.456 0.906 106.823 0.913333 107.175 0.927999C107.542 0.942666 107.82 0.949999 108.011 0.949999C108.246 0.949999 108.546 0.949999 108.913 0.949999C109.294 0.949999 109.683 0.949999 110.079 0.949999C110.475 0.935333 110.827 0.920666 111.135 0.906C111.59 0.876666 112.066 0.832666 112.565 0.773999C113.064 0.700666 113.386 0.605332 113.533 0.487999ZM126.205 11.29C126.337 12.522 126.241 13.578 125.919 14.458C125.596 15.338 125.119 16.064 124.489 16.636C123.873 17.208 123.176 17.6333 122.399 17.912C121.636 18.176 120.873 18.308 120.111 18.308C119.363 18.308 118.6 18.176 117.823 17.912C117.06 17.6333 116.371 17.208 115.755 16.636C115.153 16.064 114.684 15.338 114.347 14.458C114.024 13.578 113.929 12.522 114.061 11.29C114.193 10.1607 114.53 9.17067 115.073 8.32C115.63 7.46933 116.334 6.802 117.185 6.318C118.05 5.81933 118.996 5.54067 120.023 5.482C120.081 5.46733 120.14 5.42333 120.199 5.35C120.272 5.262 120.389 5.18867 120.551 5.13C120.727 5.05667 120.991 5.03467 121.343 5.064C122.179 5.29867 122.941 5.702 123.631 6.274C124.32 6.846 124.892 7.55733 125.347 8.408C125.816 9.25867 126.102 10.2193 126.205 11.29ZM119.913 14.788C120.382 14.788 120.785 14.678 121.123 14.458C121.46 14.238 121.731 13.9593 121.937 13.622C122.142 13.27 122.289 12.9033 122.377 12.522C122.479 12.1407 122.531 11.796 122.531 11.488C122.531 10.8573 122.428 10.366 122.223 10.014C122.017 9.662 121.548 9.34667 120.815 9.068C120.609 8.98 120.47 8.86267 120.397 8.716C120.323 8.56933 120.213 8.48867 120.067 8.474C119.583 8.41533 119.172 8.54733 118.835 8.87C118.497 9.19267 118.241 9.62533 118.065 10.168C117.889 10.7107 117.801 11.2973 117.801 11.928C117.801 12.5587 117.918 13.0867 118.153 13.512C118.402 13.9373 118.688 14.26 119.011 14.48C119.348 14.6853 119.649 14.788 119.913 14.788ZM137.353 5.79C137.5 5.93667 137.61 6.208 137.683 6.604C137.771 6.98533 137.793 7.41067 137.749 7.88C137.72 8.33467 137.61 8.75267 137.419 9.134C137.243 9.50067 136.972 9.75 136.605 9.882C136.033 10.0873 135.615 10.454 135.351 10.982C135.087 11.51 134.933 12.1773 134.889 12.984V14.854C134.918 15.0887 135.014 15.2793 135.175 15.426C135.351 15.5727 135.52 15.6753 135.681 15.734C135.857 15.7927 135.945 15.822 135.945 15.822C135.945 15.822 135.916 15.9247 135.857 16.13C135.813 16.3353 135.725 16.5773 135.593 16.856C135.461 17.1347 135.27 17.406 135.021 17.67C134.772 17.9193 134.449 18.0953 134.053 18.198C133.848 18.242 133.569 18.2493 133.217 18.22C132.88 18.2053 132.535 18.1393 132.183 18.022C131.831 17.9047 131.538 17.7433 131.303 17.538C131.171 17.4207 131.061 17.296 130.973 17.164C130.885 17.032 130.819 16.834 130.775 16.57C130.746 16.306 130.731 15.932 130.731 15.448V13.094C130.716 12.2433 130.533 11.5393 130.181 10.982C129.829 10.41 129.367 9.91867 128.795 9.508C128.531 9.31733 128.34 9.00933 128.223 8.584C128.12 8.144 128.054 7.682 128.025 7.198C127.996 6.714 127.988 6.30333 128.003 5.966C128.076 5.98067 128.274 6.01 128.597 6.054C128.92 6.098 129.198 6.12 129.433 6.12C129.902 6.10533 130.225 5.922 130.401 5.57C130.577 5.218 130.665 4.778 130.665 4.25L130.643 2.292C130.775 2.27733 130.995 2.26267 131.303 2.248C131.626 2.21867 131.978 2.21867 132.359 2.248C132.74 2.27733 133.107 2.35067 133.459 2.468C133.826 2.57067 134.134 2.73933 134.383 2.974C134.647 3.20867 134.801 3.524 134.845 3.92C134.845 3.964 134.845 4.02267 134.845 4.096C134.86 4.15467 134.867 4.228 134.867 4.316H134.889C134.889 4.50667 134.911 4.734 134.955 4.998C135.014 5.262 135.094 5.482 135.197 5.658C135.3 5.80467 135.461 5.91467 135.681 5.988C135.901 6.04667 136.114 6.08333 136.319 6.098C136.539 6.098 136.7 6.08333 136.803 6.054C136.964 6.01 137.082 5.97333 137.155 5.944C137.228 5.9 137.294 5.84867 137.353 5.79ZM150.847 11.29C150.979 12.522 150.884 13.578 150.561 14.458C150.239 15.338 149.762 16.064 149.131 16.636C148.515 17.208 147.819 17.6333 147.041 17.912C146.279 18.176 145.516 18.308 144.753 18.308C144.005 18.308 143.243 18.176 142.465 17.912C141.703 17.6333 141.013 17.208 140.397 16.636C139.796 16.064 139.327 15.338 138.989 14.458C138.667 13.578 138.571 12.522 138.703 11.29C138.835 10.1607 139.173 9.17067 139.715 8.32C140.273 7.46933 140.977 6.802 141.827 6.318C142.693 5.81933 143.639 5.54067 144.665 5.482C144.724 5.46733 144.783 5.42333 144.841 5.35C144.915 5.262 145.032 5.18867 145.193 5.13C145.369 5.05667 145.633 5.03467 145.985 5.064C146.821 5.29867 147.584 5.702 148.273 6.274C148.963 6.846 149.535 7.55733 149.989 8.408C150.459 9.25867 150.745 10.2193 150.847 11.29ZM144.555 14.788C145.025 14.788 145.428 14.678 145.765 14.458C146.103 14.238 146.374 13.9593 146.579 13.622C146.785 13.27 146.931 12.9033 147.019 12.522C147.122 12.1407 147.173 11.796 147.173 11.488C147.173 10.8573 147.071 10.366 146.865 10.014C146.66 9.662 146.191 9.34667 145.457 9.068C145.252 8.98 145.113 8.86267 145.039 8.716C144.966 8.56933 144.856 8.48867 144.709 8.474C144.225 8.41533 143.815 8.54733 143.477 8.87C143.14 9.19267 142.883 9.62533 142.707 10.168C142.531 10.7107 142.443 11.2973 142.443 11.928C142.443 12.5587 142.561 13.0867 142.795 13.512C143.045 13.9373 143.331 14.26 143.653 14.48C143.991 14.6853 144.291 14.788 144.555 14.788Z" fill="#FF00D6"/>
</svg>
