<svg width="375" height="27" viewBox="0 0 375 27" fill="none" xmlns="http://www.w3.org/2000/svg">
<rect x="190" y="9" width="185" height="17" fill="#FF0000"/>
<rect y="9" width="26" height="17" fill="#FF0000"/>
<path d="M40.002 19.026C39.9433 19.0407 39.8553 19.1213 39.738 19.268C39.6353 19.4147 39.562 19.5687 39.518 19.73C39.4447 19.9647 39.4667 20.1553 39.584 20.302C39.892 20.6687 40.288 21.1013 40.772 21.6C41.256 22.084 41.74 22.546 42.224 22.986C42.7227 23.426 43.148 23.7633 43.5 23.998C43.236 24.702 42.818 25.2667 42.246 25.692C41.6887 26.1027 41.0653 26.3007 40.376 26.286C39.6867 26.2713 39.012 25.9633 38.352 25.362C38.264 25.274 38.0953 25.0833 37.846 24.79C37.5967 24.482 37.3107 24.1227 36.988 23.712C36.6653 23.3013 36.3427 22.8907 36.02 22.48C35.6973 22.0693 35.4187 21.71 35.184 21.402C34.9493 21.094 34.8027 20.9033 34.744 20.83C34.4653 20.4633 34.2013 20.3827 33.952 20.588C33.7027 20.7933 33.5487 21.2187 33.49 21.864C33.4607 22.2453 33.4607 22.6853 33.49 23.184C33.534 23.668 33.5927 24.1007 33.666 24.482C33.754 24.8633 33.842 25.0907 33.93 25.164C33.622 25.3987 33.2407 25.6187 32.786 25.824C32.3313 26.0293 31.8107 26.154 31.224 26.198C31.004 26.2127 30.7473 26.154 30.454 26.022C30.1607 25.89 29.904 25.6773 29.684 25.384C29.4787 25.076 29.3687 24.6947 29.354 24.24C29.354 24.1227 29.3467 23.8147 29.332 23.316C29.332 22.8173 29.3247 22.2087 29.31 21.49C29.31 20.7567 29.31 20.0013 29.31 19.224C29.31 18.4467 29.3027 17.7133 29.288 17.024C29.288 16.3347 29.288 15.7773 29.288 15.352C29.288 14.9267 29.288 14.714 29.288 14.714C29.288 13.8487 29.266 13.13 29.222 12.558C29.178 11.9713 29.002 11.524 28.694 11.216C28.4153 10.9373 28.2027 10.534 28.056 10.006C27.924 9.478 27.8653 8.97933 27.88 8.51C27.9387 8.52467 28.1147 8.54667 28.408 8.576C28.7013 8.59067 28.9873 8.61267 29.266 8.642C29.4567 8.642 29.728 8.642 30.08 8.642C30.4467 8.62733 30.8353 8.61267 31.246 8.598C31.6567 8.58333 32.038 8.576 32.39 8.576C32.742 8.56133 33.006 8.54667 33.182 8.532C33.314 8.532 33.556 8.532 33.908 8.532C34.2747 8.51733 34.7 8.51 35.184 8.51C35.668 8.51 36.1593 8.51733 36.658 8.532C37.1567 8.532 37.6187 8.54667 38.044 8.576C38.4693 8.60533 38.7993 8.642 39.034 8.686C40.002 8.862 40.75 9.18467 41.278 9.654C41.806 10.1233 42.18 10.688 42.4 11.348C42.6347 12.008 42.774 12.7267 42.818 13.504C42.8473 14.164 42.774 14.8533 42.598 15.572C42.422 16.2907 42.1213 16.958 41.696 17.574C41.2707 18.19 40.706 18.674 40.002 19.026ZM33.534 14.296C33.534 14.7653 33.644 15.1173 33.864 15.352C34.084 15.572 34.2893 15.704 34.48 15.748C34.744 15.8067 35.0813 15.814 35.492 15.77C35.9027 15.7113 36.3133 15.6087 36.724 15.462C37.1347 15.3007 37.4793 15.0953 37.758 14.846C38.0513 14.5967 38.198 14.3107 38.198 13.988C38.198 13.5627 38.022 13.24 37.67 13.02C37.318 12.7853 36.8707 12.6387 36.328 12.58C35.8 12.5213 35.272 12.536 34.744 12.624C34.3333 12.6827 34.0253 12.866 33.82 13.174C33.6147 13.482 33.5193 13.856 33.534 14.296ZM56.3489 20.478C56.7155 20.7273 56.9502 21.0867 57.0529 21.556C57.1702 22.0107 57.1555 22.5093 57.0089 23.052C56.8769 23.5947 56.6055 24.1153 56.1949 24.614C55.7842 25.098 55.2269 25.5013 54.5229 25.824C53.8335 26.1467 52.9975 26.3153 52.0149 26.33C51.1935 26.3447 50.3869 26.242 49.5949 26.022C48.8175 25.802 48.1062 25.4647 47.4609 25.01C46.8302 24.5553 46.3169 23.9687 45.9209 23.25C45.5249 22.5313 45.3049 21.6733 45.2609 20.676C45.2462 20.4707 45.2462 20.258 45.2609 20.038C45.2755 19.818 45.2902 19.5907 45.3049 19.356C45.3049 19.2973 45.3049 19.2387 45.3049 19.18C45.3195 19.1213 45.3342 19.0627 45.3489 19.004C45.4955 18.124 45.7962 17.3173 46.2509 16.584C46.7202 15.8507 47.2922 15.2273 47.9669 14.714C48.6415 14.2007 49.3602 13.8267 50.1229 13.592C50.9002 13.3427 51.6629 13.2547 52.4109 13.328C53.5695 13.4453 54.4642 13.7533 55.0949 14.252C55.7402 14.7507 56.1582 15.3667 56.3489 16.1C56.5542 16.8187 56.5615 17.596 56.3709 18.432C56.2682 18.8427 56.0335 19.2533 55.6669 19.664C55.3149 20.06 54.8749 20.4193 54.3469 20.742C53.8189 21.05 53.2542 21.292 52.6529 21.468C52.0662 21.6293 51.4942 21.6953 50.9369 21.666C50.6582 21.6513 50.5115 21.7393 50.4969 21.93C50.4822 22.106 50.5629 22.304 50.7389 22.524C50.9149 22.7293 51.1495 22.8687 51.4429 22.942C52.1322 23.0887 52.7775 23.096 53.3789 22.964C53.9949 22.8173 54.4642 22.6193 54.7869 22.37C55.0509 22.1647 55.3295 21.8933 55.6229 21.556C55.9162 21.204 56.1582 20.8447 56.3489 20.478ZM51.5309 18.256C51.8682 18.2267 52.1615 18.124 52.4109 17.948C52.6749 17.7573 52.8069 17.5593 52.8069 17.354C52.8215 17.0607 52.7482 16.826 52.5869 16.65C52.4402 16.4593 52.1835 16.3713 51.8169 16.386C51.4062 16.4007 51.0102 16.4593 50.6289 16.562C50.2475 16.6647 50.0202 16.8773 49.9469 17.2C49.9029 17.42 49.9689 17.6107 50.1449 17.772C50.3209 17.9333 50.5409 18.058 50.8049 18.146C51.0689 18.2193 51.3109 18.256 51.5309 18.256ZM64.6454 13.218C65.7308 13.218 66.6548 13.372 67.4174 13.68C68.1948 13.988 68.7888 14.3693 69.1994 14.824C69.6101 15.2787 69.8081 15.726 69.7934 16.166C69.7934 16.4007 69.6908 16.6647 69.4854 16.958C69.2801 17.2513 69.0088 17.5007 68.6714 17.706C68.3488 17.8967 67.9894 17.97 67.5934 17.926C67.6961 17.662 67.6301 17.4127 67.3954 17.178C67.1608 16.9433 66.8234 16.7527 66.3834 16.606C65.9434 16.4447 65.4668 16.3567 64.9534 16.342C64.3668 16.3127 63.9708 16.3787 63.7654 16.54C63.5601 16.6867 63.4428 16.848 63.4134 17.024C63.3694 17.2147 63.4574 17.3833 63.6774 17.53C63.8974 17.662 64.1834 17.7867 64.5354 17.904C64.9021 18.0067 65.2834 18.102 65.6794 18.19C66.0901 18.2633 66.4641 18.3293 66.8014 18.388C67.1534 18.4467 67.4248 18.5053 67.6154 18.564C68.4954 18.828 69.1408 19.1727 69.5514 19.598C69.9621 20.0087 70.2261 20.4487 70.3434 20.918C70.4754 21.3873 70.5268 21.8493 70.4974 22.304C70.4681 23.0373 70.2774 23.6533 69.9254 24.152C69.5881 24.636 69.1628 25.0247 68.6494 25.318C68.1508 25.6113 67.6228 25.8313 67.0654 25.978C66.5228 26.11 66.0094 26.198 65.5254 26.242C65.0561 26.286 64.6968 26.308 64.4474 26.308C63.6848 26.2933 62.9661 26.2127 62.2914 26.066C61.6314 25.934 61.0594 25.758 60.5754 25.538C60.1061 25.318 59.7688 25.0833 59.5634 24.834C59.4168 24.658 59.2774 24.4087 59.1454 24.086C59.0134 23.7633 58.9328 23.4187 58.9034 23.052C58.8888 22.6707 58.9694 22.3113 59.1454 21.974C59.3214 21.622 59.6441 21.336 60.1134 21.116C60.2014 21.4093 60.4361 21.6733 60.8174 21.908C61.2134 22.1427 61.6828 22.3333 62.2254 22.48C62.7828 22.6267 63.3328 22.7293 63.8754 22.788C64.4034 22.832 64.9021 22.8247 65.3714 22.766C65.8408 22.7073 66.0974 22.5387 66.1414 22.26C66.1708 22.1133 66.0974 21.9667 65.9214 21.82C65.7454 21.6733 65.4228 21.5487 64.9534 21.446C64.4548 21.3287 64.0148 21.2407 63.6334 21.182C63.2668 21.1087 62.9001 21.028 62.5334 20.94C61.8441 20.764 61.2428 20.4853 60.7294 20.104C60.2161 19.7227 59.8274 19.268 59.5634 18.74C59.3141 18.1973 59.2261 17.6253 59.2994 17.024C59.4168 16.1587 59.7321 15.4473 60.2454 14.89C60.7734 14.3327 61.4261 13.9147 62.2034 13.636C62.9808 13.3573 63.7948 13.218 64.6454 13.218ZM80.521 13.79C80.6677 13.9367 80.7777 14.208 80.851 14.604C80.939 14.9853 80.961 15.4107 80.917 15.88C80.8877 16.3347 80.7777 16.7527 80.587 17.134C80.411 17.5007 80.1397 17.75 79.773 17.882C79.201 18.0873 78.783 18.454 78.519 18.982C78.255 19.51 78.101 20.1773 78.057 20.984V22.854C78.0863 23.0887 78.1817 23.2793 78.343 23.426C78.519 23.5727 78.6877 23.6753 78.849 23.734C79.025 23.7927 79.113 23.822 79.113 23.822C79.113 23.822 79.0837 23.9247 79.025 24.13C78.981 24.3353 78.893 24.5773 78.761 24.856C78.629 25.1347 78.4383 25.406 78.189 25.67C77.9397 25.9193 77.617 26.0953 77.221 26.198C77.0157 26.242 76.737 26.2493 76.385 26.22C76.0477 26.2053 75.703 26.1393 75.351 26.022C74.999 25.9047 74.7057 25.7433 74.471 25.538C74.339 25.4207 74.229 25.296 74.141 25.164C74.053 25.032 73.987 24.834 73.943 24.57C73.9137 24.306 73.899 23.932 73.899 23.448V21.094C73.8843 20.2433 73.701 19.5393 73.349 18.982C72.997 18.41 72.535 17.9187 71.963 17.508C71.699 17.3173 71.5083 17.0093 71.391 16.584C71.2883 16.144 71.2223 15.682 71.193 15.198C71.1637 14.714 71.1563 14.3033 71.171 13.966C71.2443 13.9807 71.4423 14.01 71.765 14.054C72.0877 14.098 72.3663 14.12 72.601 14.12C73.0703 14.1053 73.393 13.922 73.569 13.57C73.745 13.218 73.833 12.778 73.833 12.25L73.811 10.292C73.943 10.2773 74.163 10.2627 74.471 10.248C74.7937 10.2187 75.1457 10.2187 75.527 10.248C75.9083 10.2773 76.275 10.3507 76.627 10.468C76.9937 10.5707 77.3017 10.7393 77.551 10.974C77.815 11.2087 77.969 11.524 78.013 11.92C78.013 11.964 78.013 12.0227 78.013 12.096C78.0277 12.1547 78.035 12.228 78.035 12.316H78.057C78.057 12.5067 78.079 12.734 78.123 12.998C78.1817 13.262 78.2623 13.482 78.365 13.658C78.4677 13.8047 78.629 13.9147 78.849 13.988C79.069 14.0467 79.2817 14.0833 79.487 14.098C79.707 14.098 79.8683 14.0833 79.971 14.054C80.1323 14.01 80.2497 13.9733 80.323 13.944C80.3963 13.9 80.4623 13.8487 80.521 13.79ZM94.1861 22.018C94.2008 22.3407 94.2228 22.7367 94.2521 23.206C94.2961 23.6753 94.3914 24.13 94.5381 24.57C94.6848 25.01 94.9194 25.362 95.2421 25.626C94.8754 25.8753 94.5014 26.0513 94.1201 26.154C93.7388 26.2713 93.3648 26.3007 92.9981 26.242C92.8954 26.2127 92.7854 26.176 92.6681 26.132C92.5508 26.1027 92.3894 26.0587 92.1841 26C91.8468 25.8973 91.4508 25.8753 90.9961 25.934C90.5414 25.9927 90.0648 26.066 89.5661 26.154C89.0821 26.2567 88.6054 26.308 88.1361 26.308C87.3734 26.308 86.6108 26.176 85.8481 25.912C85.0854 25.6333 84.3961 25.208 83.7801 24.636C83.1641 24.064 82.6948 23.338 82.3721 22.458C82.0494 21.578 81.9541 20.522 82.0861 19.29C82.1741 18.4393 82.4161 17.662 82.8121 16.958C83.2081 16.2393 83.6921 15.6233 84.2641 15.11C84.8508 14.582 85.4668 14.1787 86.1121 13.9C86.7721 13.6067 87.4101 13.4673 88.0261 13.482C88.4954 13.4967 88.8548 13.5113 89.1041 13.526C89.3681 13.5407 89.7054 13.5773 90.1161 13.636C90.3654 13.6653 90.6808 13.6287 91.0621 13.526C91.4434 13.4233 91.8248 13.3133 92.2061 13.196C92.6021 13.064 92.9394 12.998 93.2181 12.998C93.6434 12.9833 93.9441 12.998 94.1201 13.042C94.2961 13.0713 94.4428 13.1007 94.5601 13.13C94.4721 13.394 94.3988 13.79 94.3401 14.318C94.2814 14.846 94.2374 15.4473 94.2081 16.122C94.1934 16.782 94.1788 17.4713 94.1641 18.19C94.1494 18.9087 94.1421 19.598 94.1421 20.258C94.1568 20.918 94.1714 21.5047 94.1861 22.018ZM85.9141 19.994C85.9434 20.7273 86.0754 21.2993 86.3101 21.71C86.5594 22.106 86.8528 22.3847 87.1901 22.546C87.5421 22.7073 87.8794 22.788 88.2021 22.788C88.8474 22.8027 89.3241 22.5533 89.6321 22.04C89.9401 21.5267 90.0868 20.8153 90.0721 19.906C90.0721 19.6567 90.0428 19.3633 89.9841 19.026C89.9401 18.6887 89.8521 18.3587 89.7201 18.036C89.6028 17.7133 89.4341 17.442 89.2141 17.222C89.0088 17.002 88.7374 16.892 88.4001 16.892C87.7254 16.892 87.1314 17.1413 86.6181 17.64C86.1194 18.1387 85.8848 18.9233 85.9141 19.994ZM108.303 23.206C108.303 23.338 108.325 23.536 108.369 23.8C108.413 24.064 108.472 24.3353 108.545 24.614C108.633 24.8927 108.721 25.142 108.809 25.362C108.897 25.5673 108.985 25.692 109.073 25.736C108.868 25.9853 108.538 26.1833 108.083 26.33C107.629 26.4913 107.174 26.5207 106.719 26.418C106.367 26.3153 106.052 26.22 105.773 26.132C105.495 26.044 105.113 26.0073 104.629 26.022C104.277 26.0367 103.925 26.0733 103.573 26.132C103.236 26.1907 102.891 26.2567 102.539 26.33C102.363 26.3593 102.055 26.3667 101.615 26.352C101.19 26.352 100.721 26.3007 100.207 26.198C99.7086 26.0953 99.2466 25.9193 98.8212 25.67C98.2639 25.3327 97.8459 24.8413 97.5672 24.196C97.2886 23.5507 97.1272 22.8907 97.0832 22.216C97.0832 22.0547 97.0759 21.7393 97.0612 21.27C97.0612 20.8007 97.0539 20.2433 97.0392 19.598C97.0392 18.9527 97.0319 18.2853 97.0172 17.596C97.0172 16.9067 97.0099 16.2687 96.9952 15.682C96.9952 15.0807 96.9952 14.5967 96.9952 14.23C96.9952 13.8487 96.9952 13.658 96.9952 13.658C97.1272 13.6433 97.3472 13.6287 97.6552 13.614C97.9779 13.5847 98.3299 13.5847 98.7112 13.614C99.0926 13.6433 99.4592 13.7167 99.8112 13.834C100.178 13.9367 100.486 14.1053 100.735 14.34C100.999 14.5747 101.153 14.89 101.197 15.286C101.227 15.6087 101.249 15.902 101.263 16.166C101.278 16.43 101.285 16.7233 101.285 17.046C101.285 17.354 101.271 17.7427 101.241 18.212C101.227 18.6667 101.205 19.246 101.175 19.95C101.146 20.522 101.131 21.0133 101.131 21.424C101.146 21.8347 101.249 22.1427 101.439 22.348C101.63 22.5533 101.967 22.6413 102.451 22.612C102.774 22.5973 103.038 22.4727 103.243 22.238C103.463 21.9887 103.639 21.688 103.771 21.336C103.903 20.984 103.991 20.6247 104.035 20.258C104.094 19.8913 104.123 19.5687 104.123 19.29C104.123 19.2313 104.116 19.004 104.101 18.608C104.101 18.212 104.094 17.7427 104.079 17.2C104.079 16.6427 104.072 16.0927 104.057 15.55C104.057 15.0073 104.057 14.56 104.057 14.208C104.057 13.8413 104.057 13.658 104.057 13.658C104.189 13.6433 104.409 13.6433 104.717 13.658C105.025 13.658 105.37 13.6873 105.751 13.746C106.133 13.8047 106.507 13.9073 106.873 14.054C107.24 14.2007 107.548 14.406 107.797 14.67C108.061 14.9193 108.215 15.242 108.259 15.638C108.347 16.4887 108.362 17.53 108.303 18.762C108.259 19.9793 108.259 21.4607 108.303 23.206ZM117.893 13.262C118.187 13.1887 118.458 13.262 118.707 13.482C118.957 13.702 119.177 14.0027 119.367 14.384C119.573 14.7507 119.741 15.132 119.873 15.528C120.005 15.9093 120.108 16.232 120.181 16.496C120.255 16.76 120.291 16.892 120.291 16.892C120.291 16.892 120.115 16.9287 119.763 17.002C119.426 17.0607 119.001 17.1853 118.487 17.376C117.989 17.552 117.49 17.8233 116.991 18.19C116.698 18.41 116.419 18.674 116.155 18.982C115.891 19.29 115.664 19.686 115.473 20.17C115.283 20.6393 115.143 21.2627 115.055 22.04C115.011 22.436 115.004 22.8467 115.033 23.272C115.063 23.6973 115.077 24.0567 115.077 24.35C115.092 24.614 115.129 24.8047 115.187 24.922C115.261 25.0247 115.319 25.1127 115.363 25.186C115.173 25.362 114.821 25.56 114.307 25.78C113.809 25.9853 113.259 26.088 112.657 26.088C112.071 26.088 111.638 25.8973 111.359 25.516C111.081 25.1347 110.941 24.6067 110.941 23.932C110.941 23.7707 110.934 23.4187 110.919 22.876C110.919 22.3187 110.912 21.6513 110.897 20.874C110.897 20.0967 110.89 19.29 110.875 18.454C110.875 17.618 110.868 16.8407 110.853 16.122C110.853 15.3887 110.846 14.7947 110.831 14.34C110.831 13.8853 110.831 13.658 110.831 13.658C110.978 13.6287 111.227 13.6067 111.579 13.592C111.946 13.5773 112.342 13.592 112.767 13.636C113.193 13.68 113.589 13.7827 113.955 13.944C114.131 14.0173 114.366 14.0907 114.659 14.164C114.967 14.2227 115.261 14.252 115.539 14.252C115.833 14.252 116.045 14.208 116.177 14.12C116.456 13.9147 116.735 13.7387 117.013 13.592C117.307 13.4453 117.6 13.3353 117.893 13.262ZM133.309 22.018C133.324 22.3407 133.346 22.7367 133.375 23.206C133.419 23.6753 133.514 24.13 133.661 24.57C133.808 25.01 134.042 25.362 134.365 25.626C133.998 25.8753 133.624 26.0513 133.243 26.154C132.862 26.2713 132.488 26.3007 132.121 26.242C132.018 26.2127 131.908 26.176 131.791 26.132C131.674 26.1027 131.512 26.0587 131.307 26C130.97 25.8973 130.574 25.8753 130.119 25.934C129.664 25.9927 129.188 26.066 128.689 26.154C128.205 26.2567 127.728 26.308 127.259 26.308C126.496 26.308 125.734 26.176 124.971 25.912C124.208 25.6333 123.519 25.208 122.903 24.636C122.287 24.064 121.818 23.338 121.495 22.458C121.172 21.578 121.077 20.522 121.209 19.29C121.297 18.4393 121.539 17.662 121.935 16.958C122.331 16.2393 122.815 15.6233 123.387 15.11C123.974 14.582 124.59 14.1787 125.235 13.9C125.895 13.6067 126.533 13.4673 127.149 13.482C127.618 13.4967 127.978 13.5113 128.227 13.526C128.491 13.5407 128.828 13.5773 129.239 13.636C129.488 13.6653 129.804 13.6287 130.185 13.526C130.566 13.4233 130.948 13.3133 131.329 13.196C131.725 13.064 132.062 12.998 132.341 12.998C132.766 12.9833 133.067 12.998 133.243 13.042C133.419 13.0713 133.566 13.1007 133.683 13.13C133.595 13.394 133.522 13.79 133.463 14.318C133.404 14.846 133.36 15.4473 133.331 16.122C133.316 16.782 133.302 17.4713 133.287 18.19C133.272 18.9087 133.265 19.598 133.265 20.258C133.28 20.918 133.294 21.5047 133.309 22.018ZM125.037 19.994C125.066 20.7273 125.198 21.2993 125.433 21.71C125.682 22.106 125.976 22.3847 126.313 22.546C126.665 22.7073 127.002 22.788 127.325 22.788C127.97 22.8027 128.447 22.5533 128.755 22.04C129.063 21.5267 129.21 20.8153 129.195 19.906C129.195 19.6567 129.166 19.3633 129.107 19.026C129.063 18.6887 128.975 18.3587 128.843 18.036C128.726 17.7133 128.557 17.442 128.337 17.222C128.132 17.002 127.86 16.892 127.523 16.892C126.848 16.892 126.254 17.1413 125.741 17.64C125.242 18.1387 125.008 18.9233 125.037 19.994ZM148.108 23.206C148.123 23.8513 148.218 24.306 148.394 24.57C148.585 24.8193 148.68 24.944 148.68 24.944C148.68 24.944 148.548 25.0393 148.284 25.23C148.035 25.406 147.698 25.5893 147.272 25.78C146.847 25.9707 146.37 26.066 145.842 26.066C145.065 26.066 144.559 25.8533 144.324 25.428C144.09 25.0027 143.965 24.4527 143.95 23.778C143.95 23.6607 143.958 23.404 143.972 23.008C143.987 22.612 143.994 22.1647 143.994 21.666C144.009 21.1527 144.009 20.6833 143.994 20.258C143.98 19.818 143.95 19.51 143.906 19.334C143.745 18.7473 143.43 18.4907 142.96 18.564C142.594 18.608 142.249 18.8207 141.926 19.202C141.604 19.5687 141.34 20.0087 141.134 20.522C140.929 21.0353 140.826 21.5193 140.826 21.974C140.826 22.2087 140.812 22.4433 140.782 22.678C140.768 22.898 140.753 23.1033 140.738 23.294C140.724 23.426 140.738 23.5873 140.782 23.778C140.841 23.9687 140.944 24.1227 141.09 24.24C140.988 24.416 140.782 24.6433 140.474 24.922C140.181 25.2007 139.858 25.4573 139.506 25.692C139.169 25.912 138.876 26.0367 138.626 26.066C138.392 26.0807 138.113 26.0073 137.79 25.846C137.482 25.6847 137.211 25.4427 136.976 25.12C136.756 24.7973 136.639 24.4087 136.624 23.954C136.624 23.8367 136.624 23.5653 136.624 23.14C136.639 22.7147 136.646 22.2013 136.646 21.6C136.661 20.9987 136.668 20.3607 136.668 19.686C136.683 19.0113 136.69 18.3587 136.69 17.728C136.69 17.0973 136.69 16.5547 136.69 16.1C136.69 15.704 136.639 15.3227 136.536 14.956C136.448 14.5747 136.353 14.2667 136.25 14.032C136.162 13.7827 136.118 13.658 136.118 13.658C136.25 13.6287 136.478 13.6067 136.8 13.592C137.138 13.5773 137.512 13.5847 137.922 13.614C138.333 13.6433 138.736 13.7093 139.132 13.812C139.543 13.9147 139.888 14.076 140.166 14.296C140.46 14.516 140.753 14.6553 141.046 14.714C141.354 14.758 141.596 14.7287 141.772 14.626C142.286 14.2887 142.806 13.9953 143.334 13.746C143.862 13.4967 144.376 13.3427 144.874 13.284C145.124 13.2547 145.417 13.2693 145.754 13.328C146.092 13.372 146.422 13.482 146.744 13.658C147.082 13.834 147.368 14.0833 147.602 14.406C147.852 14.7287 148.006 15.1393 148.064 15.638C148.167 16.4887 148.196 17.53 148.152 18.762C148.108 19.9793 148.094 21.4607 148.108 23.206ZM159.798 13.79C159.945 13.9367 160.055 14.208 160.128 14.604C160.216 14.9853 160.238 15.4107 160.194 15.88C160.165 16.3347 160.055 16.7527 159.864 17.134C159.688 17.5007 159.417 17.75 159.05 17.882C158.478 18.0873 158.06 18.454 157.796 18.982C157.532 19.51 157.378 20.1773 157.334 20.984V22.854C157.364 23.0887 157.459 23.2793 157.62 23.426C157.796 23.5727 157.965 23.6753 158.126 23.734C158.302 23.7927 158.39 23.822 158.39 23.822C158.39 23.822 158.361 23.9247 158.302 24.13C158.258 24.3353 158.17 24.5773 158.038 24.856C157.906 25.1347 157.716 25.406 157.466 25.67C157.217 25.9193 156.894 26.0953 156.498 26.198C156.293 26.242 156.014 26.2493 155.662 26.22C155.325 26.2053 154.98 26.1393 154.628 26.022C154.276 25.9047 153.983 25.7433 153.748 25.538C153.616 25.4207 153.506 25.296 153.418 25.164C153.33 25.032 153.264 24.834 153.22 24.57C153.191 24.306 153.176 23.932 153.176 23.448V21.094C153.162 20.2433 152.978 19.5393 152.626 18.982C152.274 18.41 151.812 17.9187 151.24 17.508C150.976 17.3173 150.786 17.0093 150.668 16.584C150.566 16.144 150.5 15.682 150.47 15.198C150.441 14.714 150.434 14.3033 150.448 13.966C150.522 13.9807 150.72 14.01 151.042 14.054C151.365 14.098 151.644 14.12 151.878 14.12C152.348 14.1053 152.67 13.922 152.846 13.57C153.022 13.218 153.11 12.778 153.11 12.25L153.088 10.292C153.22 10.2773 153.44 10.2627 153.748 10.248C154.071 10.2187 154.423 10.2187 154.804 10.248C155.186 10.2773 155.552 10.3507 155.904 10.468C156.271 10.5707 156.579 10.7393 156.828 10.974C157.092 11.2087 157.246 11.524 157.29 11.92C157.29 11.964 157.29 12.0227 157.29 12.096C157.305 12.1547 157.312 12.228 157.312 12.316H157.334C157.334 12.5067 157.356 12.734 157.4 12.998C157.459 13.262 157.54 13.482 157.642 13.658C157.745 13.8047 157.906 13.9147 158.126 13.988C158.346 14.0467 158.559 14.0833 158.764 14.098C158.984 14.098 159.146 14.0833 159.248 14.054C159.41 14.01 159.527 13.9733 159.6 13.944C159.674 13.9 159.74 13.8487 159.798 13.79ZM172.407 20.478C172.774 20.7273 173.009 21.0867 173.111 21.556C173.229 22.0107 173.214 22.5093 173.067 23.052C172.935 23.5947 172.664 24.1153 172.253 24.614C171.843 25.098 171.285 25.5013 170.581 25.824C169.892 26.1467 169.056 26.3153 168.073 26.33C167.252 26.3447 166.445 26.242 165.653 26.022C164.876 25.802 164.165 25.4647 163.519 25.01C162.889 24.5553 162.375 23.9687 161.979 23.25C161.583 22.5313 161.363 21.6733 161.319 20.676C161.305 20.4707 161.305 20.258 161.319 20.038C161.334 19.818 161.349 19.5907 161.363 19.356C161.363 19.2973 161.363 19.2387 161.363 19.18C161.378 19.1213 161.393 19.0627 161.407 19.004C161.554 18.124 161.855 17.3173 162.309 16.584C162.779 15.8507 163.351 15.2273 164.025 14.714C164.7 14.2007 165.419 13.8267 166.181 13.592C166.959 13.3427 167.721 13.2547 168.469 13.328C169.628 13.4453 170.523 13.7533 171.153 14.252C171.799 14.7507 172.217 15.3667 172.407 16.1C172.613 16.8187 172.62 17.596 172.429 18.432C172.327 18.8427 172.092 19.2533 171.725 19.664C171.373 20.06 170.933 20.4193 170.405 20.742C169.877 21.05 169.313 21.292 168.711 21.468C168.125 21.6293 167.553 21.6953 166.995 21.666C166.717 21.6513 166.57 21.7393 166.555 21.93C166.541 22.106 166.621 22.304 166.797 22.524C166.973 22.7293 167.208 22.8687 167.501 22.942C168.191 23.0887 168.836 23.096 169.437 22.964C170.053 22.8173 170.523 22.6193 170.845 22.37C171.109 22.1647 171.388 21.8933 171.681 21.556C171.975 21.204 172.217 20.8447 172.407 20.478ZM167.589 18.256C167.927 18.2267 168.22 18.124 168.469 17.948C168.733 17.7573 168.865 17.5593 168.865 17.354C168.88 17.0607 168.807 16.826 168.645 16.65C168.499 16.4593 168.242 16.3713 167.875 16.386C167.465 16.4007 167.069 16.4593 166.687 16.562C166.306 16.6647 166.079 16.8773 166.005 17.2C165.961 17.42 166.027 17.6107 166.203 17.772C166.379 17.9333 166.599 18.058 166.863 18.146C167.127 18.2193 167.369 18.256 167.589 18.256ZM180.704 13.218C181.789 13.218 182.713 13.372 183.476 13.68C184.253 13.988 184.847 14.3693 185.258 14.824C185.669 15.2787 185.867 15.726 185.852 16.166C185.852 16.4007 185.749 16.6647 185.544 16.958C185.339 17.2513 185.067 17.5007 184.73 17.706C184.407 17.8967 184.048 17.97 183.652 17.926C183.755 17.662 183.689 17.4127 183.454 17.178C183.219 16.9433 182.882 16.7527 182.442 16.606C182.002 16.4447 181.525 16.3567 181.012 16.342C180.425 16.3127 180.029 16.3787 179.824 16.54C179.619 16.6867 179.501 16.848 179.472 17.024C179.428 17.2147 179.516 17.3833 179.736 17.53C179.956 17.662 180.242 17.7867 180.594 17.904C180.961 18.0067 181.342 18.102 181.738 18.19C182.149 18.2633 182.523 18.3293 182.86 18.388C183.212 18.4467 183.483 18.5053 183.674 18.564C184.554 18.828 185.199 19.1727 185.61 19.598C186.021 20.0087 186.285 20.4487 186.402 20.918C186.534 21.3873 186.585 21.8493 186.556 22.304C186.527 23.0373 186.336 23.6533 185.984 24.152C185.647 24.636 185.221 25.0247 184.708 25.318C184.209 25.6113 183.681 25.8313 183.124 25.978C182.581 26.11 182.068 26.198 181.584 26.242C181.115 26.286 180.755 26.308 180.506 26.308C179.743 26.2933 179.025 26.2127 178.35 26.066C177.69 25.934 177.118 25.758 176.634 25.538C176.165 25.318 175.827 25.0833 175.622 24.834C175.475 24.658 175.336 24.4087 175.204 24.086C175.072 23.7633 174.991 23.4187 174.962 23.052C174.947 22.6707 175.028 22.3113 175.204 21.974C175.38 21.622 175.703 21.336 176.172 21.116C176.26 21.4093 176.495 21.6733 176.876 21.908C177.272 22.1427 177.741 22.3333 178.284 22.48C178.841 22.6267 179.391 22.7293 179.934 22.788C180.462 22.832 180.961 22.8247 181.43 22.766C181.899 22.7073 182.156 22.5387 182.2 22.26C182.229 22.1133 182.156 21.9667 181.98 21.82C181.804 21.6733 181.481 21.5487 181.012 21.446C180.513 21.3287 180.073 21.2407 179.692 21.182C179.325 21.1087 178.959 21.028 178.592 20.94C177.903 20.764 177.301 20.4853 176.788 20.104C176.275 19.7227 175.886 19.268 175.622 18.74C175.373 18.1973 175.285 17.6253 175.358 17.024C175.475 16.1587 175.791 15.4473 176.304 14.89C176.832 14.3327 177.485 13.9147 178.262 13.636C179.039 13.3573 179.853 13.218 180.704 13.218Z" fill="#FF0000"/>
</svg>
